<svg xmlns="http://www.w3.org/2000/svg" width="24" height="24" viewBox="0 0 24 24" fill="none">
  <path d="M12 17.2501C11.8694 17.2501 11.7412 17.216 11.6278 17.1512L5.0625 13.3989C5.00545 13.3659 4.94074 13.3486 4.87486 13.3486C4.80899 13.3487 4.74428 13.366 4.68726 13.399C4.63024 13.432 4.58291 13.4794 4.55003 13.5365C4.51716 13.5936 4.4999 13.6583 4.5 13.7242V17.2501C4.49989 17.384 4.53561 17.5154 4.60344 17.6308C4.67128 17.7462 4.76877 17.8414 4.88578 17.9064L11.6358 21.6564C11.7472 21.7183 11.8725 21.7507 12 21.7507C12.1275 21.7507 12.2528 21.7183 12.3642 21.6564L19.1142 17.9064C19.2312 17.8414 19.3287 17.7462 19.3966 17.6308C19.4644 17.5154 19.5001 17.384 19.5 17.2501V13.7242C19.5001 13.6583 19.4828 13.5936 19.45 13.5365C19.4171 13.4794 19.3698 13.432 19.3127 13.399C19.2557 13.366 19.191 13.3487 19.1251 13.3486C19.0593 13.3486 18.9945 13.3659 18.9375 13.3989L12.3722 17.1512C12.2588 17.216 12.1306 17.2501 12 17.2501Z" fill="#4285F4"/>
  <path d="M23.2471 8.92965C23.2471 8.92965 23.2471 8.9259 23.2471 8.92449C23.235 8.80561 23.1946 8.69134 23.1294 8.59122C23.0642 8.49109 22.976 8.408 22.8721 8.34887L12.3721 2.34887C12.2588 2.28408 12.1305 2.25 11.9999 2.25C11.8694 2.25 11.7411 2.28408 11.6277 2.34887L1.12774 8.34887C1.01298 8.41448 0.917608 8.50925 0.851273 8.62359C0.784937 8.73793 0.75 8.86777 0.75 8.99996C0.75 9.13215 0.784937 9.26199 0.851273 9.37633C0.917608 9.49067 1.01298 9.58544 1.12774 9.65105L11.6277 15.6511C11.7411 15.7158 11.8694 15.7499 11.9999 15.7499C12.1305 15.7499 12.2588 15.7158 12.3721 15.6511L21.6102 10.3725C21.6245 10.3642 21.6407 10.3599 21.6572 10.3599C21.6737 10.3599 21.6899 10.3643 21.7042 10.3726C21.7184 10.3808 21.7302 10.3927 21.7384 10.407C21.7466 10.4213 21.7509 10.4375 21.7509 10.454V17.2289C21.7509 17.6325 22.0612 17.9789 22.4648 17.999C22.5662 18.0039 22.6675 17.9882 22.7627 17.9527C22.8578 17.9173 22.9448 17.8629 23.0183 17.7929C23.0918 17.7228 23.1503 17.6386 23.1903 17.5453C23.2302 17.4519 23.2509 17.3515 23.2509 17.25V8.99996C23.2508 8.97647 23.2496 8.95301 23.2471 8.92965Z" fill="#4285F4"/>
</svg>
